<svg width="593" height="228" viewBox="0 0 593 228" fill="none" xmlns="http://www.w3.org/2000/svg">
<path d="M132.284 185.496V177.306H124.003V151.735H132.284V143.454H157.946V151.735H166.318V177.306H157.946V185.496H132.284ZM133.194 176.396H157.036V152.554H133.194V176.396ZM177.324 185.496V151.735H185.605V143.454H211.267V151.735H219.639V160.744H210.357V152.554H186.515V185.496H177.324ZM247.115 185.496V177.306H238.925V152.554H230.644V143.454H238.925V126.983H248.025V143.454H272.959V152.554H248.025V176.396H272.049V168.115H281.24V177.306H272.959V185.496H247.115ZM290.452 185.496V135.264H298.733V126.983H324.395V135.264H332.767V144.364H323.485V136.174H299.643V151.735H316.205V160.744H299.643V185.496H290.452ZM342.989 185.496V177.306H334.708V151.735H342.989V143.454H368.651V151.735H377.023V177.306H368.651V185.496H342.989ZM343.899 176.396H367.741V152.554H343.899V176.396ZM388.028 185.496V126.983H397.219V185.496H388.028ZM408.201 185.496V143.454H417.392V185.496H408.201ZM408.201 136.174V126.983H417.392V136.174H408.201ZM434.877 185.496V177.306H426.596V151.735H434.877V143.454H460.539V151.735H468.911V177.306H460.539V185.496H434.877ZM435.787 176.396H459.629V152.554H435.787V176.396Z" fill="#F0EDE4"/>
<path d="M43.1778 187.707C36.8546 187.754 32.1507 186.886 29.066 185.102C25.9799 183.138 23.9765 180.985 23.0557 178.643C22.1349 176.301 21.6698 174.498 21.6604 173.233C21.6429 170.884 22.4411 168.891 24.0549 167.253C25.6688 165.615 27.921 164.785 30.8116 164.764C32.2569 164.753 33.6152 165.194 34.8866 166.088C35.9759 166.803 36.5266 167.973 36.5387 169.599C36.5522 171.406 35.93 172.765 34.6721 173.678C33.4128 174.41 31.9702 174.782 30.3443 174.794C29.0796 174.804 27.995 174.721 27.0903 174.548C26.1843 174.193 25.7313 174.016 25.7313 174.016C25.7488 176.364 26.9413 178.794 29.3087 181.306C31.6748 183.637 35.6581 184.782 41.2586 184.74C49.569 184.678 57.1393 182.273 63.9695 177.525C70.7983 172.596 77.2557 166.315 83.3417 158.681C89.4277 151.048 95.4194 142.873 101.317 134.157C107.214 125.441 113.385 117.084 119.829 109.086C128.422 98.3626 137.2 88.3602 146.165 79.0792C155.128 69.6176 164.282 61.5095 173.626 54.7551C182.97 47.82 192.509 42.9612 202.245 40.1786C203.687 39.8065 204.502 40.0714 204.69 40.9734C204.877 41.8754 204.249 42.5124 202.807 42.8845C195.055 45.1103 187.498 49.322 180.136 55.5196C172.775 61.7173 165.514 69.2692 158.353 78.1755C151.372 86.8997 144.305 96.2569 137.153 106.247C130.18 116.055 123.025 125.774 115.689 135.405C108.534 145.034 101.101 153.761 93.3907 161.587C85.6801 169.414 77.687 175.706 69.4116 180.466C61.1361 185.225 52.3915 187.638 43.1778 187.707ZM138.667 127.645C128.008 127.725 119.687 126.341 113.704 123.495C107.72 120.649 104.71 116.787 104.674 111.909C104.655 109.38 105.453 107.386 107.069 105.929C108.682 104.291 110.481 103.194 112.464 102.637C114.627 101.898 116.34 101.524 117.605 101.515C118.689 101.506 119.234 101.864 119.239 102.586C119.243 103.128 118.794 103.493 117.892 103.68C115.546 104.059 113.387 105.25 111.415 107.252C109.621 109.072 108.731 110.795 108.743 112.421C108.76 114.769 111.039 117.463 115.578 120.5C120.298 123.536 127.536 125.018 137.292 124.946C142.17 124.909 147.762 123.784 154.069 121.569C160.375 119.173 166.402 115.695 172.149 111.136C178.076 106.394 182.912 100.667 186.656 93.9542C190.398 87.0608 192.236 79.0975 192.169 70.0644C192.094 59.9474 187.524 52.8449 178.46 48.7569C169.575 44.487 157.364 42.4098 141.827 42.5255C129.001 42.621 116.82 44.6088 105.286 48.4888C93.7518 52.3688 83.4904 57.3233 74.5017 63.3524C65.6937 69.3801 58.6956 75.8461 53.5075 82.7503C48.5001 89.6531 46.0193 96.1757 46.065 102.318C46.1108 108.461 47.589 112.876 50.4998 115.565C53.5912 118.252 57.2145 119.58 61.3698 119.549C66.4283 119.511 71.4754 117.938 76.511 114.829C81.726 111.538 86.5736 107.437 91.0538 102.525C95.5327 97.4331 99.5586 92.1636 103.131 86.7169C106.703 81.0895 109.555 75.9191 111.688 71.2057C113.821 66.4924 114.969 62.8704 115.13 60.3398C115.298 58.5318 115.652 57.6258 116.194 57.6218C116.917 57.6164 117.373 58.2454 117.563 59.5087C118.147 65.1051 117.201 71.526 114.726 78.7713C112.429 85.8346 108.777 92.7273 103.768 99.4495C98.9388 105.99 92.927 111.455 85.7329 115.844C78.5387 120.234 70.5154 122.462 61.6629 122.528C56.0624 122.569 51.5331 120.887 48.075 117.48C44.6155 113.892 42.8609 108.756 42.8111 102.071C42.7627 95.5676 45.3318 88.7733 50.5186 81.6885C55.7039 74.423 62.8806 67.6847 72.0486 61.4736C81.2166 55.2625 91.7484 50.2156 103.644 46.3329C115.719 42.2682 128.44 40.1861 141.809 40.0866C157.527 39.9695 169.916 41.684 178.976 45.23C188.216 48.7746 194.756 53.5137 198.594 59.4473C202.612 65.1989 204.645 71.3266 204.693 77.8304C204.731 82.8889 203.055 88.3216 199.665 94.1283C196.456 99.9337 191.89 105.388 185.966 110.491C180.04 115.413 173.025 119.53 164.919 122.843C156.993 125.973 148.242 127.574 138.667 127.645Z" fill="#F0EDE4"/>
<path d="M461.14 135.405V134.029L465.116 129.549C465.639 128.962 465.999 128.474 466.196 128.085C466.399 127.696 466.5 127.288 466.5 126.861V126.781C466.5 126.269 466.351 125.872 466.052 125.589C465.759 125.301 465.346 125.157 464.812 125.157C463.815 125.157 463.044 125.706 462.5 126.805L461.14 126.149C461.535 125.338 462.047 124.728 462.676 124.317C463.311 123.901 464.036 123.693 464.852 123.693C465.487 123.693 466.044 123.821 466.524 124.077C467.004 124.333 467.378 124.69 467.644 125.149C467.916 125.608 468.052 126.138 468.052 126.741V126.837C468.052 127.216 467.994 127.581 467.876 127.933C467.759 128.285 467.564 128.661 467.292 129.061C467.02 129.456 466.647 129.917 466.172 130.445L463.036 133.933V133.997H468.228V135.405H461.14ZM471.11 132.165L470.67 130.909L477.566 127.181L478.006 128.437L471.11 132.165ZM474.334 135.661C473.065 135.661 472.078 135.16 471.374 134.157C470.67 133.154 470.318 131.76 470.318 129.973V129.365C470.318 127.578 470.67 126.186 471.374 125.189C472.078 124.192 473.065 123.693 474.334 123.693C475.609 123.693 476.595 124.192 477.294 125.189C477.998 126.186 478.35 127.578 478.35 129.365V129.973C478.35 131.765 477.998 133.162 477.294 134.165C476.595 135.162 475.609 135.661 474.334 135.661ZM474.334 134.301C475.182 134.301 475.825 133.936 476.262 133.205C476.705 132.469 476.926 131.394 476.926 129.981V129.357C476.926 127.874 476.705 126.786 476.262 126.093C475.825 125.4 475.182 125.053 474.334 125.053C473.486 125.053 472.841 125.418 472.398 126.149C471.961 126.874 471.742 127.944 471.742 129.357V129.981C471.742 131.464 471.961 132.554 472.398 133.253C472.841 133.952 473.486 134.301 474.334 134.301ZM480.328 135.405V134.029L484.304 129.549C484.826 128.962 485.186 128.474 485.384 128.085C485.586 127.696 485.688 127.288 485.688 126.861V126.781C485.688 126.269 485.538 125.872 485.24 125.589C484.946 125.301 484.533 125.157 484 125.157C483.002 125.157 482.232 125.706 481.688 126.805L480.328 126.149C480.722 125.338 481.234 124.728 481.864 124.317C482.498 123.901 483.224 123.693 484.04 123.693C484.674 123.693 485.232 123.821 485.712 124.077C486.192 124.333 486.565 124.69 486.832 125.149C487.104 125.608 487.24 126.138 487.24 126.741V126.837C487.24 127.216 487.181 127.581 487.064 127.933C486.946 128.285 486.752 128.661 486.48 129.061C486.208 129.456 485.834 129.917 485.36 130.445L482.224 133.933V133.997H487.416V135.405H480.328ZM493.513 135.645C492.772 135.645 492.113 135.48 491.537 135.149C490.967 134.818 490.519 134.365 490.193 133.789C489.868 133.208 489.705 132.541 489.705 131.789V131.629C489.705 131.186 489.764 130.749 489.881 130.317C489.999 129.885 490.185 129.434 490.441 128.965C490.703 128.496 491.039 127.986 491.449 127.437L494.329 123.597L495.561 124.493L493.353 127.221C493.124 127.504 492.908 127.752 492.705 127.965C492.503 128.178 492.287 128.386 492.057 128.589L492.097 128.645C492.657 128.234 493.295 128.029 494.009 128.029C494.655 128.029 495.225 128.189 495.721 128.509C496.223 128.829 496.617 129.266 496.905 129.821C497.193 130.37 497.337 130.994 497.337 131.693V131.853C497.337 132.589 497.172 133.242 496.841 133.813C496.516 134.384 496.065 134.832 495.489 135.157C494.919 135.482 494.26 135.645 493.513 135.645ZM493.513 134.221C494.212 134.221 494.772 134.008 495.193 133.581C495.62 133.149 495.833 132.586 495.833 131.893V131.653C495.833 130.954 495.623 130.389 495.201 129.957C494.785 129.525 494.228 129.309 493.529 129.309C492.836 129.309 492.276 129.525 491.849 129.957C491.423 130.389 491.209 130.954 491.209 131.653V131.893C491.209 132.586 491.42 133.149 491.841 133.581C492.263 134.008 492.82 134.221 493.513 134.221Z" fill="#F0EDE4"/>
<g filter="url(#filter0_f_782_3)">
<path d="M478.128 108L482.234 122.388L496.747 118.75L486.34 129.5L496.747 140.25L482.234 136.612L478.128 151L474.022 136.612L459.508 140.25L469.915 129.5L459.508 118.75L474.022 122.388L478.128 108Z" fill="#F0EDE4" fill-opacity="0.35"/>
</g>
<defs>
<filter id="filter0_f_782_3" x="455.508" y="104" width="45.2391" height="51" filterUnits="userSpaceOnUse" color-interpolation-filters="sRGB">
<feFlood flood-opacity="0" result="BackgroundImageFix"/>
<feBlend mode="normal" in="SourceGraphic" in2="BackgroundImageFix" result="shape"/>
<feGaussianBlur stdDeviation="2" result="effect1_foregroundBlur_782_3"/>
</filter>
</defs>
</svg>
